<?xml version="1.0" standalone="no"?><!DOCTYPE svg PUBLIC "-//W3C//DTD SVG 1.1//EN" "http://www.w3.org/Graphics/SVG/1.1/DTD/svg11.dtd"><svg t="1579493200218" class="icon" viewBox="0 0 1024 1024" version="1.1" xmlns="http://www.w3.org/2000/svg" p-id="2339" xmlns:xlink="http://www.w3.org/1999/xlink" width="200" height="200"><defs><style type="text/css"></style></defs><path d="M170.666667 885.333333c-8.533333 0-17.066667-4.266667-23.466667-8.533333-10.666667-10.666667-12.8-23.466667-6.4-36.266667l104.533333-217.6c2.133333-4.266667 4.266667-6.4 6.4-8.533333L654.933333 213.333333c42.666667-42.666667 113.066667-42.666667 157.866667 0 21.333333 21.333333 32 49.066667 32 78.933334s-12.8 55.466667-34.133333 76.8L409.6 770.133333c-2.133333 2.133333-6.4 4.266667-8.533333 6.4L185.6 881.066667c-6.4 4.266667-10.666667 4.266667-14.933333 4.266666z m132.266666-230.4l-61.866666 128 128-61.866666 396.8-398.933334c8.533333-8.533333 12.8-21.333333 12.8-34.133333s-4.266667-23.466667-12.8-34.133333c-19.2-19.2-49.066667-19.2-66.133334 0L302.933333 654.933333zM853.333333 885.333333H437.333333c-17.066667 0-32-14.933333-32-32s14.933333-32 32-32H853.333333c17.066667 0 32 14.933333 32 32s-14.933333 32-32 32z" fill="#d81e06" p-id="2340"></path><path d="M610.432 301.674667l45.269333-45.248 111.616 111.616-45.248 45.269333z" fill="#d81e06" p-id="2341"></path></svg>