<?xml version="1.0" standalone="no"?><!DOCTYPE svg PUBLIC "-//W3C//DTD SVG 1.1//EN" "http://www.w3.org/Graphics/SVG/1.1/DTD/svg11.dtd"><svg t="1579519512980" class="icon" viewBox="0 0 1024 1024" version="1.1" xmlns="http://www.w3.org/2000/svg" p-id="3230" xmlns:xlink="http://www.w3.org/1999/xlink" width="200" height="200"><defs><style type="text/css"></style></defs><path d="M893.8 158.2H673.7V86.6c0-10.9-8.8-19.7-19.7-19.7H370.1c-10.9 0-19.7 8.8-19.7 19.7v71.6H130.2c-10.9 0-19.7 8.8-19.7 19.7v130.8c0 10.9 8.8 19.7 19.7 19.7H227v608.8c0 10.9 8.8 19.7 19.7 19.7h179.7c10.9 0 19.7-8.8 19.7-19.7s-8.8-19.7-19.7-19.7h-160v-589h491v114.8c0 10.9 8.8 19.7 19.7 19.7s19.7-8.8 19.7-19.7V328.5h96.8c10.9 0 19.7-8.8 19.7-19.7V178c0.2-10.9-8.6-19.8-19.5-19.8zM874 289.1H150v-91.3h220.1c10.9 0 19.7-8.8 19.7-19.7v-71.6h244.4V178c0 10.9 8.8 19.7 19.7 19.7H874v91.4z" fill="#d81e06" p-id="3231"></path><path d="M743.1 758.7L907.8 594c7.7-7.7 7.7-20.2 0-27.9-7.7-7.7-20.2-7.7-27.9 0L715.2 730.8 550.5 566.2c-7.7-7.7-20.2-7.7-27.9 0-7.7 7.7-7.7 20.2 0 27.9l164.7 164.7-164.7 164.6c-7.7 7.7-7.7 20.2 0 27.9 3.9 3.9 8.9 5.8 14 5.8s10.1-1.9 14-5.8l164.7-164.7L880 951.3c3.9 3.9 8.9 5.8 14 5.8s10.1-1.9 14-5.8c7.7-7.7 7.7-20.2 0-27.9L743.1 758.7z" fill="#d81e06" p-id="3232"></path></svg>