<?xml version="1.0" standalone="no"?><!DOCTYPE svg PUBLIC "-//W3C//DTD SVG 1.1//EN" "http://www.w3.org/Graphics/SVG/1.1/DTD/svg11.dtd"><svg t="1579602741389" class="icon" viewBox="0 0 1024 1024" version="1.1" xmlns="http://www.w3.org/2000/svg" p-id="8611" xmlns:xlink="http://www.w3.org/1999/xlink" width="200" height="200"><defs><style type="text/css"></style></defs><path d="M 669.867 640 h 76.8 c 12.8 0 21.3333 -8.53333 21.3333 -21.3333 s -8.53333 -21.3333 -21.3333 -21.3333 h -128 c -12.8 0 -21.3333 8.53333 -21.3333 21.3333 v 128 c 0 12.8 8.53333 21.3333 21.3333 21.3333 s 21.3333 -8.53333 21.3333 -21.3333 v -76.8 l 132.267 132.267 c 4.26667 4.26667 8.53333 4.26667 17.0667 4.26667 s 12.8 0 17.0667 -4.26667 c 8.53333 -8.53333 8.53333 -21.3333 0 -29.8667 L 669.867 640 Z M 405.333 597.333 h -128 c -12.8 0 -21.3333 8.53333 -21.3333 21.3333 s 8.53333 21.3333 21.3333 21.3333 h 76.8 l -132.267 132.267 c -8.53333 8.53333 -8.53333 21.3333 0 29.8667 c 0 8.53333 8.53333 8.53333 12.8 8.53333 s 12.8 0 17.0667 -4.26667 L 384 669.867 v 76.8 c 0 12.8 8.53333 21.3333 21.3333 21.3333 s 21.3333 -8.53333 21.3333 -21.3333 v -128 c 0 -12.8 -8.53333 -21.3333 -21.3333 -21.3333 Z M 789.333 213.333 c -4.26667 0 -12.8 0 -17.0667 4.26667 L 640 354.133 V 277.333 c 0 -12.8 -8.53333 -21.3333 -21.3333 -21.3333 s -21.3333 8.53333 -21.3333 21.3333 v 128 c 0 12.8 8.53333 21.3333 21.3333 21.3333 h 128 c 12.8 0 21.3333 -8.53333 21.3333 -21.3333 s -8.53333 -21.3333 -21.3333 -21.3333 h -76.8 l 132.267 -132.267 c 8.53333 -8.53333 8.53333 -21.3333 0 -29.8667 c 0 -8.53333 -8.53333 -8.53333 -12.8 -8.53333 Z M 405.333 256 c -12.8 0 -21.3333 8.53333 -21.3333 21.3333 v 76.8 L 251.733 217.6 C 247.467 213.333 238.933 213.333 234.667 213.333 s -12.8 0 -17.0667 4.26667 c -4.26667 8.53333 -4.26667 25.6 0 34.1333 L 354.133 384 H 277.333 c -12.8 0 -21.3333 8.53333 -21.3333 21.3333 s 8.53333 21.3333 21.3333 21.3333 h 128 c 12.8 0 21.3333 -8.53333 21.3333 -21.3333 v -128 c 0 -12.8 -8.53333 -21.3333 -21.3333 -21.3333 Z" p-id="8612" fill="#e72528"></path></svg>