<?xml version="1.0" standalone="no"?><!DOCTYPE svg PUBLIC "-//W3C//DTD SVG 1.1//EN" "http://www.w3.org/Graphics/SVG/1.1/DTD/svg11.dtd"><svg t="1579499423302" class="icon" viewBox="0 0 1024 1024" version="1.1" xmlns="http://www.w3.org/2000/svg" p-id="809" xmlns:xlink="http://www.w3.org/1999/xlink" width="200" height="200"><defs><style type="text/css"></style></defs><path d="M512 47.104C253.952 47.104 47.104 253.952 47.104 512S253.952 978.944 512 978.944 978.944 770.048 978.944 512 770.048 47.104 512 47.104z m137.216 100.352c-34.816 20.48-75.776 55.296-94.208 110.592-6.144 10.24-6.144 12.288-45.056 6.144-22.528-6.144-51.2-10.24-73.728 6.144-14.336 10.24-22.528 28.672-26.624 53.248-4.096 30.72 4.096 63.488 20.48 94.208 4.096 10.24 8.192 14.336 10.24 20.48 6.144 14.336 0 28.672-4.096 32.768-2.048-2.048-6.144-4.096-8.192-10.24-49.152-65.536-114.688-71.68-137.216-73.728-8.192 0-30.72-4.096-38.912-14.336-6.144-10.24-4.096-26.624 6.144-47.104 14.336-38.912 14.336-69.632-2.048-90.112-4.096-4.096-6.144-8.192-10.24-10.24 71.68-65.536 165.888-104.448 266.24-104.448 49.152 0 94.208 8.192 137.216 26.624zM120.832 512c0-92.16 32.768-180.224 90.112-247.808 2.048 0 4.096 2.048 6.144 2.048 2.048 2.048 4.096 10.24-6.144 34.816-16.384 38.912-16.384 71.68-2.048 96.256 20.48 34.816 65.536 40.96 79.872 43.008 28.672 4.096 67.584 10.24 98.304 51.2 16.384 22.528 36.864 30.72 53.248 30.72 10.24 0 16.384-2.048 24.576-6.144 30.72-16.384 45.056-61.44 30.72-102.4-2.048-8.192-8.192-18.432-12.288-30.72-10.24-20.48-14.336-40.96-12.288-61.44 0-10.24 4.096-12.288 2.048-12.288 4.096-2.048 20.48 2.048 30.72 4.096 30.72 6.144 86.016 18.432 108.544-43.008 20.48-57.344 79.872-88.064 106.496-98.304 110.592 71.68 186.368 196.608 186.368 337.92 0 49.152-10.24 96.256-26.624 139.264-4.096-10.24-10.24-20.48-14.336-30.72-16.384-20.48-38.912-32.768-67.584-32.768-14.336 0-24.576-14.336-38.912-49.152-6.144-12.288-12.288-28.672-22.528-40.96-16.384-26.624-63.488-51.2-114.688-51.2-30.72 2.048-90.112 14.336-133.12 94.208-45.056 86.016 16.384 153.6 63.488 200.704 10.24 10.24 22.528 24.576 30.72 32.768 47.104 59.392 45.056 94.208 38.912 114.688-34.816 8.192-71.68 12.288-108.544 12.288-217.088 4.096-391.168-169.984-391.168-387.072z m557.056 354.304c-2.048-30.72-12.288-73.728-53.248-124.928-10.24-12.288-20.48-24.576-32.768-36.864-49.152-51.2-77.824-92.16-53.248-135.168 22.528-40.96 51.2-61.44 83.968-63.488 32.768-2.048 59.392 16.384 63.488 24.576 8.192 10.24 12.288 24.576 18.432 34.816 18.432 36.864 36.864 77.824 90.112 79.872 10.24 0 18.432 4.096 24.576 10.24 6.144 8.192 16.384 30.72 10.24 90.112-40.96 49.152-92.16 92.16-151.552 120.832z" p-id="810" fill="#d81e06"></path></svg>