<?xml version="1.0" standalone="no"?><!DOCTYPE svg PUBLIC "-//W3C//DTD SVG 1.1//EN" "http://www.w3.org/Graphics/SVG/1.1/DTD/svg11.dtd"><svg t="1579493138056" class="icon" viewBox="0 0 1024 1024" version="1.1" xmlns="http://www.w3.org/2000/svg" p-id="2032" xmlns:xlink="http://www.w3.org/1999/xlink" width="200" height="200"><defs><style type="text/css"></style></defs><path d="M512 757.333333c-8.533333 0-17.066667-2.133333-23.466667-8.533333l-164.266666-164.266667c-49.066667-49.066667-76.8-115.2-76.8-187.733333 0-70.4 27.733333-136.533333 76.8-187.733333 49.066667-49.066667 115.2-76.8 187.733333-76.8 70.4 0 136.533333 27.733333 187.733333 76.8 102.4 102.4 102.4 270.933333 0 373.333333L535.466667 746.666667c-6.4 8.533333-14.933333 10.666667-23.466667 10.666666z m0-561.066666c-53.333333 0-104.533333 21.333333-140.8 57.6-38.4 38.4-57.6 87.466667-57.6 140.8s21.333333 104.533333 57.6 140.8l140.8 140.8 140.8-140.8c78.933333-78.933333 78.933333-204.8 0-283.733334-36.266667-34.133333-87.466667-55.466667-140.8-55.466666z" fill="#d81e06" p-id="2033"></path><path d="M512 885.333333c-145.066667 0-292.266667-36.266667-292.266667-113.066666 0-21.333333 10.666667-53.333333 68.266667-76.8 17.066667-6.4 34.133333 0 42.666667 17.066666 6.4 17.066667 0 34.133333-17.066667 42.666667-19.2 8.533333-25.6 14.933333-27.733333 19.2 10.666667 14.933333 87.466667 49.066667 228.266666 49.066667s217.6-34.133333 228.266667-49.066667c-2.133333-2.133333-8.533333-10.666667-27.733333-19.2-17.066667-6.4-23.466667-25.6-17.066667-42.666667 6.4-17.066667 25.6-23.466667 42.666667-17.066666 55.466667 25.6 68.266667 55.466667 68.266666 76.8-4.266667 76.8-151.466667 113.066667-296.533333 113.066666z m228.266667-113.066666z" fill="#d81e06" p-id="2034"></path><path d="M512 512c-61.866667 0-110.933333-49.066667-110.933333-110.933333 0-61.866667 49.066667-110.933333 110.933333-110.933334s110.933333 49.066667 110.933333 110.933334c0 61.866667-49.066667 110.933333-110.933333 110.933333z m0-157.866667c-25.6 0-46.933333 21.333333-46.933333 46.933334 0 25.6 21.333333 46.933333 46.933333 46.933333s46.933333-21.333333 46.933333-46.933333c0-25.6-21.333333-46.933333-46.933333-46.933334z" fill="#d81e06" p-id="2035"></path></svg>