<?xml version="1.0" standalone="no"?><!DOCTYPE svg PUBLIC "-//W3C//DTD SVG 1.1//EN" "http://www.w3.org/Graphics/SVG/1.1/DTD/svg11.dtd"><svg t="1579599044797" class="icon" viewBox="0 0 1024 1024" version="1.1" xmlns="http://www.w3.org/2000/svg" p-id="5937" xmlns:xlink="http://www.w3.org/1999/xlink" width="200" height="200"><defs><style type="text/css"></style></defs><path d="M41.909959 682.266194h0.1397a41.909959 41.909959 0 0 1 41.909959 41.909959V975.105048a41.909959 41.909959 0 0 1-41.909959 41.909959H41.909959a41.909959 41.909959 0 0 1-41.909959-41.909959V724.176153a41.909959 41.909959 0 0 1 41.909959-41.909959z" p-id="5938" fill="#e72528"></path><path d="M43.306958 933.320819h252.088404a41.909959 41.909959 0 0 1 41.909959 41.909959 41.909959 41.909959 0 0 1-41.909959 41.909959H43.306958a41.909959 41.909959 0 0 1-41.909959-41.909959 41.909959 41.909959 0 0 1 41.909959-41.909959z" p-id="5939" fill="#e72528"></path><path d="M13.495007 1002.905321a41.742319 41.742319 0 0 1 0.963929-59.162893l341.845566-329.817408a41.909959 41.909959 0 1 1 58.394543 60.070942L72.853479 1003.86925a42.077599 42.077599 0 0 1-59.358472-0.963929zM981.964311 5.587995h0.12573a41.909959 41.909959 0 0 1 41.909959 41.909959v250.942865a41.909959 41.909959 0 0 1-41.909959 41.909959h-0.12573a41.909959 41.909959 0 0 1-41.909959-41.909959V47.497954a41.909959 41.909959 0 0 1 41.909959-41.909959z" p-id="5940" fill="#e72528"></path><path d="M728.604638 5.587995H980.693042a41.909959 41.909959 0 0 1 41.909959 41.909959 41.909959 41.909959 0 0 1-41.909959 41.909959H728.604638a41.909959 41.909959 0 0 1-41.909959-41.909959 41.909959 41.909959 0 0 1 41.909959-41.909959z" p-id="5941" fill="#e72528"></path><path d="M1010.504993 19.697681a41.742319 41.742319 0 0 1-0.963929 59.162892l-341.845566 329.831378a41.909959 41.909959 0 1 1-58.394543-60.070941l341.845566-329.817408a42.077599 42.077599 0 0 1 59.358472 0.894079zM48.894952 0h250.928895a41.909959 41.909959 0 0 1 41.909959 41.909959v0.12573a41.909959 41.909959 0 0 1-41.909959 41.909959H48.894952a41.909959 41.909959 0 0 1-41.909959-41.909959V41.909959A41.909959 41.909959 0 0 1 48.894952 0z" p-id="5942" fill="#e72528"></path><path d="M48.894952 1.396999a41.909959 41.909959 0 0 1 41.909959 41.909959v252.158253a41.909959 41.909959 0 0 1-41.909959 41.90996 41.909959 41.909959 0 0 1-41.909959-41.90996V43.306958A41.909959 41.909959 0 0 1 48.894952 1.396999z" p-id="5943" fill="#e72528"></path><path d="M21.094679 13.495007a41.742319 41.742319 0 0 1 59.162893 0.963929l329.817408 341.845566a41.909959 41.909959 0 1 1-60.070942 58.394543L20.13075 72.853479a42.077599 42.077599 0 0 1 0.963929-59.358472zM725.559181 940.054352H976.502046a41.909959 41.909959 0 0 1 41.909959 41.909959v0.12573a41.909959 41.909959 0 0 1-41.909959 41.909959H725.559181a41.909959 41.909959 0 0 1-41.909959-41.909959v-0.12573a41.909959 41.909959 0 0 1 41.909959-41.909959z" p-id="5944" fill="#e72528"></path><path d="M976.502046 686.750559a41.909959 41.909959 0 0 1 41.909959 41.909959V980.693042a41.909959 41.909959 0 0 1-41.909959 41.909959 41.909959 41.909959 0 0 1-41.909959-41.909959V728.604638a41.909959 41.909959 0 0 1 41.909959-41.854079z" p-id="5945" fill="#e72528"></path><path d="M1004.302319 1010.504993a41.742319 41.742319 0 0 1-59.162892-0.963929l-329.831378-341.845566a41.909959 41.909959 0 1 1 60.070941-58.394543l329.817408 341.845566a42.077599 42.077599 0 0 1-0.894079 59.358472z" p-id="5946" fill="#e72528"></path></svg>